<svg xmlns="http://www.w3.org/2000/svg" viewBox="0 0 511 511">
<style>
	.st0{fill:#AD7A99;}
	.st1{fill:#FFFFFF;}
	.st2{fill:#CB9080;}
	.st3{fill:#495159;}
</style>
<path class="st0" d="M481.5,431.6L72.7,510.6c-8.6,1.3-17.3-1-24.2-6.4c-6.9-5.4-11.2-13.2-12.1-21.9L5.5,286.1
	c-3.5-18,7.7-35.6,25.5-40.1l408.8-79.1c8.6-1.3,17.3,1,24.2,6.4c6.9,5.3,11.2,13.2,12.1,21.9l30.9,196.3
	C510.4,409.5,499.3,427.1,481.5,431.6z"/>
<g>
	<path class="st1" d="M86.1,419.5c-3.8,0-7.5-0.6-11-1.7c-5.7-1.9-10.9-4.9-15.2-8.9c-4.6-4.2-8.3-9.1-11.2-14.6
		c-3.1-5.9-5.1-12.2-6.1-18.8c-1.1-6.6-1.1-13.3,0-19.9c1-6.2,3-12.2,5.9-17.7c2.8-5.3,6.7-10.1,11.4-13.9
		c4.7-3.8,10.3-6.5,16.3-7.6c5.9-1.1,12.1-0.8,17.8,1.1c4.6,1.5,7.1,6.3,5.6,10.9c-1.5,4.6-6.3,7.1-10.9,5.6c-3-1-6.2-1.2-9.2-0.6
		c-3.2,0.6-6.2,2.1-8.7,4.1c-2.9,2.4-5.2,5.3-6.9,8.6c-2,3.8-3.4,8-4.1,12.2c-0.8,4.8-0.8,9.6,0,14.4c0.7,4.7,2.2,9.2,4.3,13.5
		c1.9,3.7,4.4,7,7.5,9.8c2.5,2.4,5.6,4.2,8.9,5.3c3,1,6.2,1.2,9.2,0.6c3.2-0.6,6.2-2,8.7-4.1c2.4-1.9,5.7-2.4,8.6-1.3
		c2.9,1.1,5,3.7,5.4,6.8c0.5,3.1-0.7,6.1-3.1,8.1c-4.7,3.8-10.3,6.4-16.2,7.6C90.5,419.2,88.3,419.5,86.1,419.5z"/>
	<path class="st1" d="M135,410.5c-4.3,0-7.9-3.1-8.6-7.3l-13.5-85.4c-0.6-3.1,0.5-6.3,3-8.4c2.4-2,5.8-2.6,8.8-1.4
		c3,1.2,5,3.9,5.4,7l12.1,76.5l29.7-5.8c4.5-0.5,8.7,2.5,9.6,7c0.9,4.5-1.9,8.9-6.3,10l-38.5,7.5C136.1,410.4,135.5,410.5,135,410.5
		z"/>
	<path class="st1" d="M215.5,394.5c-7.2-0.1-14.3-2.4-20.1-6.6c-12-9.2-19.9-22.8-21.8-37.8c-4.5-28.5,9.1-54.2,31-58.5
		c9.1-1.6,18.5,0.6,26,6.1c12.1,9.2,19.9,22.8,21.8,37.8c4.5,28.5-9.1,54.2-31,58.5C219.4,394.3,217.5,394.5,215.5,394.5z
		 M210.6,308.3c-0.9,0-1.8,0.1-2.7,0.3c-12.3,2.4-20.2,20.2-17.2,38.7c1.2,10.4,6.5,19.8,14.6,26.4c3.7,2.8,8.3,3.9,12.8,3.2
		c12.3-2.4,20.2-20.2,17.2-38.7c-1.2-10.4-6.5-19.8-14.6-26.4C217.8,309.7,214.3,308.5,210.6,308.3z"/>
	<path class="st1" d="M297.4,378.8c-2.2,0-4.4-0.3-6.5-0.8c-3.7-0.9-7.1-2.6-10-5c-3-2.3-5.5-5.2-7.4-8.5c-2.4-4.1-1-9.5,3.1-11.9
		c4.1-2.4,9.5-1,11.9,3.1c0.8,1.4,1.8,2.5,3,3.5c1.1,0.9,2.4,1.5,3.7,1.8c1.3,0.3,2.7,0.4,4,0.1c1.4-0.3,2.7-0.8,3.8-1.7
		c1.3-0.9,2.3-2.1,3.2-3.4c0.9-1.4,1.5-3,1.9-4.7c0.4-1.8,0.4-3.7,0.1-5.5c-0.3-1.8-0.9-3.5-1.7-5c-0.8-1.4-1.8-2.5-3-3.5
		c-1.1-0.9-2.3-1.5-3.7-1.8c-1.3-0.3-2.7-0.4-4-0.1c-3.8,0.8-7.8,0.6-11.6-0.3c-3.6-0.9-7.1-2.6-10-4.9c-3-2.3-5.5-5.2-7.4-8.5
		c-2-3.4-3.3-7.2-3.9-11c-0.6-3.9-0.5-7.9,0.3-11.7c0.8-3.7,2.2-7.3,4.2-10.5c2-3.2,4.6-6,7.7-8.2c3.2-2.3,6.8-3.8,10.6-4.6
		c3.8-0.7,7.8-0.6,11.6,0.3c3.7,0.9,7.1,2.6,10,4.9c3,2.3,5.5,5.2,7.4,8.5c1.6,2.7,1.7,6,0.2,8.8c-1.5,2.7-4.4,4.4-7.6,4.4
		c-3.1,0-6-1.7-7.6-4.4c-0.8-1.4-1.8-2.6-3-3.5c-1.1-0.9-2.3-1.5-3.7-1.8c-1.3-0.3-2.7-0.4-4-0.1c-1.4,0.3-2.7,0.8-3.8,1.7
		c-1.3,0.9-2.3,2-3.1,3.3c-0.9,1.5-1.6,3.1-1.9,4.7c-0.4,1.8-0.4,3.7-0.1,5.5c0.3,1.8,0.9,3.5,1.7,5c0.8,1.3,1.8,2.5,3,3.5
		c1.1,0.9,2.4,1.5,3.7,1.8c1.3,0.3,2.7,0.4,4,0.1c3.8-0.7,7.8-0.6,11.6,0.3c3.6,0.9,7.1,2.6,10,4.9c3,2.3,5.5,5.2,7.4,8.5
		c2,3.4,3.3,7.2,3.9,11c0.6,3.9,0.5,7.9-0.3,11.7c-0.8,3.7-2.2,7.3-4.2,10.5c-2,3.2-4.6,6-7.7,8.2c-3.2,2.3-6.8,3.9-10.6,4.6
		C300.8,378.6,299.1,378.8,297.4,378.8z"/>
	<path class="st1" d="M397.8,351c-0.9-4.7-5.5-7.8-10.2-6.9l-29.6,5.8l-4-25.5l15.1-2.9c4.7-0.9,7.8-5.5,6.9-10.2
		c-0.9-4.7-5.5-7.8-10.2-6.9l-14.5,2.8l-4-25.5l30.3-5.9c4.7-0.9,7.8-5.5,6.9-10.2c-0.9-4.7-5.5-7.8-10.2-6.9l-38.5,7.5
		c-4.6,0.9-7.6,5.3-6.9,9.9l13.5,85.4c0.7,4.2,4.3,7.3,8.6,7.3c0.6,0,1.1-0.1,1.5-0.1l38.5-7.5C395.6,360.3,398.7,355.7,397.8,351z"
		/>
	<path class="st1" d="M420.4,355.3c-4.3,0-7.9-3.1-8.6-7.3l-13.5-85.4c-0.7-4.1,1.7-8.1,5.6-9.5c13.9-4.8,29.2-3.8,42.2,2.8
		c12.9,8.5,21.1,22.4,22.3,37.7c3.5,15.2,0,31.1-9.4,43.5c-10,10.8-23.8,17.3-38.4,18.1H420.4z M416.7,267.9l10.9,68.9
		c7-1.6,13.4-5.3,18.2-10.7c6.1-8.6,8.1-19.5,5.6-29.8c-0.6-10.2-5.7-19.5-14-25.5C431,267.7,423.7,266.6,416.7,267.9z"/>
</g>
<path class="st2" d="M438.1,216.5c-2.5,0-4.9-1.1-6.5-3l-157-180.1c-1.4-1.6-2.1-3.6-2.1-5.7c0-4.8,3.9-8.7,8.7-8.7
	c2.9,0,5.6,1.5,7.3,3.9l156.2,179.3c2.2,2.6,2.8,6.2,1.4,9.3C444.6,214.6,441.5,216.5,438.1,216.5z"/>
<path class="st2" d="M65.6,285.9c-3.2,0-6.1-1.8-7.7-4.6c-1.5-2.8-1.3-6.3,0.5-8.9L223.1,28.2c2.7-3.9,8-4.9,12-2.2
	c3.9,2.6,5,8,2.4,11.9L72.8,282.1C71.2,284.4,68.5,285.9,65.6,285.9z"/>
<circle class="st3" cx="256.2" cy="34.6" r="34.6"/>
</svg>
