<?xml version="1.0" encoding="utf-8"?>
<!-- Generator: Adobe Illustrator 23.0.2, SVG Export Plug-In . SVG Version: 6.00 Build 0)  -->
<svg version="1.1" id="Capa_1" xmlns="http://www.w3.org/2000/svg" xmlns:xlink="http://www.w3.org/1999/xlink" x="0px" y="0px"
	 viewBox="0 0 490.7 490.7" style="enable-background:new 0 0 490.7 490.7;" xml:space="preserve">
<style type="text/css">
	.st0{fill:#495159;}
	.st1{fill:#AD7A99;}
</style>
<g>
	<circle class="st0" cx="394.7" cy="426.7" r="53.3"/>
	<circle class="st0" cx="181.3" cy="426.7" r="53.3"/>
</g>
<path class="st1" d="M488,78.3c-2-2.3-4.9-3.6-8-3.6H96c-5.9,0-10.7,4.8-10.7,10.7c0,0.7,0.1,1.4,0.2,2.1l42.7,213.3
	c1,5,5.4,8.5,10.5,8.5c0.5,0,0.9,0,1.4,0l320-42.7c4.8-0.6,8.6-4.4,9.2-9.3l21.3-170.7C491,83.7,490,80.6,488,78.3z M183,266.6
	c-0.5,0-1.1,0.1-1.7,0.1c-5.2,0-9.7-3.8-10.5-8.9l-21.3-128c-0.8-5.8,3.3-11.2,9.1-12c5.6-0.8,10.8,3,11.9,8.5l21.3,128
	C192.8,260.1,188.8,265.6,183,266.6z M235.6,256h-0.9c-5.5,0-10.2-4.2-10.7-9.7L213.3,129c-0.6-5.9,3.8-11.1,9.6-11.6h0.1
	c5.9-0.5,11.1,3.8,11.6,9.7l10.7,117.3C245.8,250.3,241.5,255.5,235.6,256z M298.7,234.7c0,5.9-4.8,10.6-10.7,10.6
	c-5.9,0-10.7-4.8-10.7-10.7V128c0-5.9,4.8-10.7,10.7-10.7s10.7,4.8,10.7,10.7V234.7z M362.5,129.2l-10.7,96c-0.4,5.3-5,9.5-10.5,9.5
	h-1.2c-5.9-0.6-10.1-5.9-9.5-11.7v-0.1l10.7-96c0.7-5.9,6-10.1,11.8-9.5C359,118,363.2,123.3,362.5,129.2z M426.4,130
	c0,0.2-0.1,0.3-0.1,0.5L405,215.9c-1.2,4.8-5.4,8.1-10.3,8.1c-5.9,0-10.7-4.8-10.7-10.7c0-0.9,0.1-1.7,0.3-2.6l21.3-85.3
	c1.3-5.7,7-9.4,12.7-8.1S427.7,124.3,426.4,130z"/>
<path class="st0" d="M437.3,352H191.1c-35.6-0.1-66.2-25.2-73.2-60l-52-260H10.7C4.8,32,0,27.2,0,21.3s4.8-10.7,10.7-10.7h64
	c5.1,0,9.4,3.6,10.5,8.5l53.7,268.6c5,24.9,26.9,42.8,52.3,42.9h246.2c5.9,0,10.7,4.8,10.7,10.7S443.2,352,437.3,352z"/>
</svg>
